<svg width="75" height="75" viewBox="0 0 75 75" fill="none" xmlns="http://www.w3.org/2000/svg">
<g clip-path="url(#clip0_19234_110)">
<circle cx="37.5" cy="37.5" r="36.5" stroke="#0C2836" stroke-width="2"/>
<path d="M9.79841 33.098H12.1444L14.6054 41.424H14.6514L17.2504 33.098H19.5274L22.1724 41.424H22.2184L24.6794 33.098H26.9564L23.3454 44H21.0914L18.4004 35.812H18.3544L15.6864 44H13.4324L9.79841 33.098ZM29.4275 33.098H31.7735L34.2345 41.424H34.2805L36.8795 33.098H39.1565L41.8015 41.424H41.8475L44.3085 33.098H46.5855L42.9745 44H40.7205L38.0295 35.812H37.9835L35.3155 44H33.0615L29.4275 33.098ZM49.0565 33.098H51.4025L53.8635 41.424H53.9095L56.5085 33.098H58.7855L61.4305 41.424H61.4765L63.9375 33.098H66.2145L62.6035 44H60.3495L57.6585 35.812H57.6125L54.9445 44H52.6905L49.0565 33.098Z" fill="#0C2836"/>
</g>
<defs>
<clipPath id="clip0_19234_110">
<rect width="75" height="75" fill="white"/>
</clipPath>
</defs>
</svg>
